<?xml version="1.0" standalone="no"?>
<!DOCTYPE svg PUBLIC "-//W3C//DTD SVG 20010904//EN"
 "http://www.w3.org/TR/2001/REC-SVG-20010904/DTD/svg10.dtd">
<svg version="1.0" xmlns="http://www.w3.org/2000/svg"
 width="512.000000pt" height="512.000000pt" viewBox="0 0 512.000000 512.000000"
 preserveAspectRatio="xMidYMid meet">
<metadata>
Created by potrace 1.14, written by Peter Selinger 2001-2017
</metadata>
<g transform="translate(0.000000,512.000000) scale(0.100000,-0.100000)"
fill="#000000" stroke="none">
<path d="M2440 4884 c-143 -7 -362 -41 -505 -79 -222 -59 -555 -200 -538 -228
4 -7 86 -94 182 -195 153 -159 179 -183 201 -178 14 2 70 18 125 36 99 31 170
47 315 71 118 20 579 17 705 -4 103 -18 243 -48 305 -66 171 -49 159 -47 174
-25 34 48 169 205 244 285 45 48 82 89 82 93 0 17 -264 131 -405 176 -144 45
-304 80 -455 99 -94 12 -329 20 -430 15z"/>
<path d="M4531 3813 c-18 -80 -103 -376 -146 -506 l-35 -109 84 -171 c153
-310 207 -523 237 -921 10 -135 10 -182 0 -235 -27 -140 -80 -266 -174 -406
-260 -392 -749 -738 -1304 -924 -192 -64 -324 -93 -513 -112 -337 -34 -821
113 -1292 392 -226 135 -397 267 -578 448 -219 220 -349 440 -367 622 -6 58 9
268 28 394 40 269 123 536 245 795 25 52 46 102 46 110 1 8 -16 60 -37 115
-48 127 -74 213 -119 390 -14 55 -26 110 -26 123 0 40 -26 23 -75 -50 -50 -75
-153 -270 -194 -368 -67 -159 -129 -389 -162 -605 -16 -103 -16 -487 0 -585
27 -173 34 -209 57 -295 62 -239 154 -454 282 -662 175 -283 454 -565 757
-763 89 -58 348 -187 440 -220 215 -76 331 -106 550 -142 108 -18 551 -18 665
0 217 34 377 76 550 142 30 11 69 26 85 32 59 23 247 120 333 173 557 342 966
923 1090 1550 38 191 45 261 45 470 0 240 -15 368 -69 580 -67 267 -175 506
-338 753 -16 23 -34 42 -40 42 -6 0 -17 -26 -25 -57z"/>
<path d="M3719 2876 c-88 -31 -160 -66 -304 -150 -210 -121 -296 -190 -336
-268 -42 -81 -20 -103 100 -101 222 2 545 109 676 225 l45 40 0 104 c0 69 -5
117 -14 139 -14 32 -18 35 -58 35 -24 0 -73 -11 -109 -24z"/>
<path d="M1273 2863 c-15 -22 -18 -49 -18 -136 l0 -109 45 -39 c132 -114 451
-219 677 -222 84 -2 105 1 119 15 16 16 16 20 -1 65 -36 93 -172 196 -452 341
-146 75 -247 112 -308 112 -37 0 -47 -4 -62 -27z"/>
<path d="M2363 2028 c-54 -26 -78 -148 -52 -254 18 -70 91 -142 199 -199 l90
-46 0 -74 c0 -61 -3 -75 -17 -79 -10 -4 -28 -22 -41 -41 l-22 -35 -123 0 c-75
0 -127 4 -134 11 -15 15 -164 23 -183 10 -12 -8 -10 -14 13 -39 15 -15 27 -38
27 -49 0 -38 19 -73 39 -73 19 0 21 -5 56 -102 39 -106 63 -81 67 68 l3 109
25 -2 c237 -22 325 -25 460 -14 80 6 160 14 178 17 l32 6 0 -110 c0 -86 3
-112 15 -122 20 -17 25 -12 60 73 24 55 36 72 55 77 20 5 28 18 46 78 22 70
22 73 4 82 -29 15 -133 12 -156 -5 -14 -10 -48 -14 -124 -15 l-104 0 -45 48
c-44 47 -44 48 -43 116 0 37 2 69 4 70 100 45 167 98 205 163 23 39 27 59 30
147 5 114 -3 137 -56 173 -33 22 -41 23 -260 22 -139 0 -235 -4 -248 -11z"/>
<path d="M2403 1154 c-4 -11 2 -23 18 -35 29 -22 68 -24 75 -4 9 22 41 18 62
-7 32 -39 52 -58 63 -58 5 0 25 17 44 37 31 34 37 37 55 25 28 -17 54 -15 75
8 15 16 15 22 5 35 -10 12 -45 15 -202 15 -165 0 -189 -2 -195 -16z"/>
</g>
</svg>
